<?xml version="1.0" encoding="utf-8"?>
<!-- Generator: Adobe Illustrator 24.2.3, SVG Export Plug-In . SVG Version: 6.00 Build 0)  -->
<svg version="1.1" id="Graphic_Elements" xmlns="http://www.w3.org/2000/svg" xmlns:xlink="http://www.w3.org/1999/xlink" x="0px"
	 y="0px" viewBox="0 0 1200 800" style="enable-background:new 0 0 1200 800;" xml:space="preserve">
<style type="text/css">
	.st0{fill:#5D7CA8;}
	.st1{fill:#FFFFFE;}
</style>
<g>
	<path class="st0" d="M1038.8,378.6c1.2-1.3,2.3-2.7,3.2-4c2.4-3.6,3.9-7.3,4.6-11.1L867.8,361l35.5-37.5l-2,0.1h0l-232-0.2
		l-7.3,8.3l-224.5-6.4h0l3.7-2.1l-223.3-0.2c0,0-70.4,8.4-94.5,49.4c-39.9,5.8-72.8,31.3-73.4,39.7c-0.6,8.3,15,26.2,49.5,31.6
		c16.1,2.5,143.9,6.3,275.5,9.6c-17.3-17.5-28.4-28.6-28.4-28.6l263.8,8.9l2.7,25.3c41.1,0.9,67.1,1.4,67.1,1.4s181-4.7,271.7-38
		c-27-21.8-48.4-39-48.4-39L1038.8,378.6z M193.3,379.4c0,0-46.9-1-62.1-14.4c0.7-1.4,18.2-11,30.2-23.4c0,0,16.6,17.5,35.4,17.9
		C199.7,364.4,193.3,379.4,193.3,379.4z M297.6,388.4h-24.3V359h24.3V388.4z M343.5,388.4h-24.3V359h24.3V388.4z M389.5,388.4h-24.3
		V359h24.3V388.4z M435.5,388.4h-24.3V359h24.3V388.4z M481.4,388.4h-24.3V359h24.3V388.4z M527.4,388.4h-24.3V359h24.3V388.4z
		 M573.3,388.4h-24.2V359h24.2V388.4z M619.3,388.4H595V359h24.3V388.4z M665.2,388.4H641V359h24.2V388.4z M711.3,388.4H687V359
		h24.3V388.4z M757.2,388.4h-24.2V359h24.2V388.4z"/>
	<path class="st0" d="M437.5,325.4l224.5,6.4l7.3-8.3l178.2-203.3c0,0-6.3-4.8-19.2-8.4s-29.8,8.1-29.8,8.1L441.1,323.3L437.5,325.4
		L437.5,325.4z"/>
	<path class="st0" d="M346.5,424.7c0,0,11.1,11.1,28.4,28.6c13,13.2,29.6,29.9,47.6,48.3l32.1-0.8h0l11,41.5c0,0-1.2,0-3.2,0.1
		c11.8,12,23.5,24.2,34.9,35.9l37.6-0.9l11.1,41.6c0,0-3.9,0.1-9.5,0.2c22.5,23.7,39.3,42.2,44.3,49.3
		c20.6,28.9,56.6,18.6,56.6,18.6l-24.4-228.2l-2.7-25.3L346.5,424.7z"/>
	<path class="st0" d="M1046.6,363.5L1046.6,363.5c0.1,0,1.2-3.4,3-9.3l-2,1.9l0,0h0l0,0L884,354.1c0,0,118.1-47.9,190-77.3
		c16.5-52.9,34.1-110.5,32.6-111.3c-35.6-8.5-70.6,17.7-70.6,17.7L903.2,323.5L867.8,361L1046.6,363.5z"/>
	<path class="st0" d="M1038.8,378.6l-135.3,4.8c0,0,21.4,17.2,48.4,39c42.3,34.2,98.5,79.7,107.8,87.8c15.2,13.3,26.2,8.3,26.2,8.3
		l-45.5-140L1038.8,378.6z"/>
	<polygon class="st0" points="1047.7,356.2 1047.6,356.2 1047.6,356.2 	"/>
	<path class="st0" d="M884,354.1l163.6,2.1l2-1.9l100.4-97.9c0,0-9.5-7.2-22.6-1.4c-3.7,1.6-24.9,10.3-53.4,21.9
		C1002.1,306.2,884,354.1,884,354.1z"/>
	<path class="st0" d="M454.7,500.9L454.7,500.9l-32.2,0.8l-7.1,0.2c0,0-13.2,2.3-13.6,17.6c-0.4,15.3,6.8,18.6,16.6,20.9
		c11.3,2.6,35.4,2.4,44.1,2.2c2,0,3.2-0.1,3.2-0.1L454.7,500.9z"/>
	<path class="st0" d="M535,577.5l-37.6,0.9l-1.7,0c0,0-13.2,2.3-13.6,17.6c-0.4,15.3,6.8,18.6,16.6,21c9.2,2.2,26.8,2.4,37.8,2.3
		c5.6-0.1,9.5-0.2,9.5-0.2L535,577.5z"/>
	<path class="st1" d="M161.5,341.7c-12,12.4-29.5,22-30.2,23.4c15.1,13.4,62.1,14.4,62.1,14.4s6.4-15,3.5-19.8
		C178.1,359.2,161.5,341.7,161.5,341.7z"/>
	<rect x="273.3" y="359" class="st1" width="24.3" height="29.4"/>
	<rect x="319.3" y="359" class="st1" width="24.3" height="29.4"/>
	<rect x="365.2" y="359" class="st1" width="24.3" height="29.4"/>
	<rect x="411.2" y="359" class="st1" width="24.3" height="29.4"/>
	<rect x="457.2" y="359" class="st1" width="24.3" height="29.4"/>
	<rect x="503.1" y="359" class="st1" width="24.3" height="29.4"/>
	<rect x="549.1" y="359" class="st1" width="24.2" height="29.4"/>
	<rect x="595" y="359" class="st1" width="24.3" height="29.4"/>
	<rect x="641" y="359" class="st1" width="24.2" height="29.4"/>
	<rect x="687" y="359" class="st1" width="24.3" height="29.4"/>
	<rect x="732.9" y="359" class="st1" width="24.2" height="29.4"/>
</g>
</svg>
